<svg width="23" height="23" viewBox="0 0 23 23" fill="none" xmlns="http://www.w3.org/2000/svg">
<g clip-path="url(#clip0_7_21)">
<path d="M17.756 0.583008H4.83152C2.28632 0.583008 0.215637 2.65369 0.215637 5.19889V18.1234C0.215637 20.6686 2.28632 22.7392 4.83152 22.7392H17.756C20.3012 22.7392 22.3719 20.6686 22.3719 18.1234V5.19889C22.3719 2.65369 20.3012 0.583008 17.756 0.583008ZM20.5255 18.1234C20.5255 19.6503 19.2829 20.8929 17.756 20.8929H4.83152C3.30459 20.8929 2.06199 19.6503 2.06199 18.1234V5.19889C2.06199 3.67196 3.30459 2.42936 4.83152 2.42936H17.756C19.2829 2.42936 20.5255 3.67196 20.5255 5.19889V18.1234ZM12.2169 17.2002C12.2169 17.7107 11.8033 18.1234 11.2938 18.1234C10.7842 18.1234 10.3706 17.7107 10.3706 17.2002C10.3706 14.655 8.29989 12.5843 5.7547 12.5843C5.2451 12.5843 4.83152 12.1716 4.83152 11.6611C4.83152 11.1506 5.2451 10.7379 5.7547 10.7379C9.31816 10.7379 12.2169 13.6376 12.2169 17.2002ZM17.756 17.2002C17.756 17.7107 17.3424 18.1234 16.8328 18.1234C16.3232 18.1234 15.9096 17.7107 15.9096 17.2002C15.9096 11.6011 11.3538 7.04524 5.7547 7.04524C5.2451 7.04524 4.83152 6.63258 4.83152 6.12207C4.83152 5.61155 5.2451 5.19889 5.7547 5.19889C12.372 5.19889 17.756 10.5829 17.756 17.2002ZM7.60105 16.7386C7.60105 17.503 6.98067 18.1234 6.21628 18.1234C5.45189 18.1234 4.83152 17.503 4.83152 16.7386C4.83152 15.9742 5.45189 15.3538 6.21628 15.3538C6.98067 15.3538 7.60105 15.9742 7.60105 16.7386Z" fill="#ED3237"/>
</g>
<defs>
<clipPath id="clip0_7_21">
<rect width="22.1562" height="22.1562" fill="white" transform="translate(0.215637 0.583008)"/>
</clipPath>
</defs>
</svg>
