<svg width="26" height="25" viewBox="0 0 26 25" fill="none" xmlns="http://www.w3.org/2000/svg">
<path d="M2.33894 22.0337H20.387V24.1486H0.215637V9.34417C0.215637 7.59514 1.64462 6.1718 3.4006 6.1718V8.28672C2.81562 8.28672 2.33894 8.76046 2.33894 9.34417V22.0337ZM25.6953 4.05689V19.9187H5.5239V4.05689C5.5239 2.30786 6.95289 0.884521 8.70886 0.884521H22.5103C24.2663 0.884521 25.6953 2.30786 25.6953 4.05689ZM22.5103 2.99943H21.4487V5.11435H23.572V4.05689C23.572 3.47318 23.0953 2.99943 22.5103 2.99943ZM9.77051 7.22926H7.64721V9.34417H9.77051V7.22926ZM7.64721 11.4591V13.574H9.77051V11.4591H7.64721ZM11.8938 17.8038H19.3254V2.99943H11.8938V17.8038ZM21.4487 13.574H23.572V11.4591H21.4487V13.574ZM23.572 9.34417V7.22926H21.4487V9.34417H23.572ZM7.64721 4.05689V5.11435H9.77051V2.99943H8.70886C8.12389 2.99943 7.64721 3.47318 7.64721 4.05689ZM7.64721 17.8038H9.77051V15.6889H7.64721V17.8038ZM23.572 17.8038V15.6889H21.4487V17.8038H23.572Z" fill="#ED3237"/>
</svg>
