<svg width="21" height="21" viewBox="0 0 21 21" fill="none" xmlns="http://www.w3.org/2000/svg">
<g clip-path="url(#clip0_12_33)">
<path d="M16.1217 6.34835H16.612V8.28334C16.612 8.4515 16.7482 8.58775 16.9164 8.58775C17.0845 8.58775 17.2208 8.4515 17.2208 8.28334V6.34835H17.711C17.8792 6.34835 18.0154 6.2121 18.0154 6.04394C18.0154 5.87579 17.8792 5.73953 17.711 5.73953H17.2208V4.85512C17.2208 4.68514 17.359 4.5469 17.529 4.5469H18.2503C18.4185 4.5469 18.5547 4.41064 18.5547 4.24249C18.5547 4.07433 18.4185 3.93808 18.2503 3.93808H17.529C17.0234 3.93808 16.612 4.34948 16.612 4.85512V5.73953H16.1217C15.9535 5.73953 15.8173 5.87579 15.8173 6.04394C15.8173 6.2121 15.9536 6.34835 16.1217 6.34835ZM10.6095 1.76394C10.6902 1.76394 10.7676 1.73187 10.8247 1.67478C10.8818 1.6177 10.9139 1.54027 10.9139 1.45953C10.9139 1.3788 10.8818 1.30137 10.8247 1.24428C10.7676 1.1872 10.6902 1.15512 10.6095 1.15512C10.5288 1.15512 10.4513 1.1872 10.3942 1.24428C10.3371 1.30137 10.3051 1.3788 10.3051 1.45953C10.3051 1.54027 10.3371 1.6177 10.3942 1.67478C10.4513 1.73187 10.5288 1.76394 10.6095 1.76394ZM4.0329 7.05312C4.53643 7.05312 4.94613 6.64343 4.94613 6.13989C4.94613 5.63636 4.53643 5.22666 4.0329 5.22666C3.52937 5.22666 3.11967 5.63636 3.11967 6.13989C3.11967 6.64343 3.52937 7.05312 4.0329 7.05312ZM4.0329 5.83548C4.20077 5.83548 4.33731 5.97202 4.33731 6.13989C4.33731 6.30776 4.20077 6.4443 4.0329 6.4443C3.86503 6.4443 3.72849 6.30776 3.72849 6.13989C3.72849 5.97202 3.86507 5.83548 4.0329 5.83548ZM5.25054 8.27076C5.75407 8.27076 6.16377 7.86106 6.16377 7.35753V4.92225C6.16377 4.41872 5.75407 4.00903 5.25054 4.00903H2.81526C2.31173 4.00903 1.90203 4.41872 1.90203 4.92225V7.35753C1.90203 7.86106 2.31173 8.27076 2.81526 8.27076H5.25054ZM2.51085 7.35753V4.92225C2.51085 4.75438 2.64739 4.61784 2.81526 4.61784H5.25054C5.41841 4.61784 5.55495 4.75438 5.55495 4.92225V7.35753C5.55495 7.5254 5.41841 7.66194 5.25054 7.66194H2.81526C2.64743 7.66194 2.51085 7.52536 2.51085 7.35753ZM5.87778 12.78C5.73 12.6688 5.53441 12.6502 5.36723 12.7311C5.32623 12.751 5.28317 12.766 5.23921 12.7759C5.18566 12.7879 5.13067 12.7923 5.07589 12.7889C4.89649 12.6241 4.66822 12.5254 4.42157 12.5082C4.13409 12.4879 3.85549 12.5814 3.63778 12.7707C3.4385 12.9437 3.30963 13.1838 3.27561 13.4455C2.9214 13.3884 2.5969 13.2091 2.35759 12.9322C2.30952 12.8765 2.24731 12.8347 2.17751 12.8113C2.10771 12.788 2.03291 12.7838 1.96097 12.7994C1.88952 12.8149 1.82356 12.8493 1.77004 12.8991C1.71652 12.9489 1.67741 13.0122 1.65684 13.0823C1.55444 13.4302 1.33831 14.4959 2.2379 15.2064C2.06621 15.2588 1.87041 15.2548 1.77028 15.4287C1.68002 15.5855 1.72828 15.7701 1.76509 15.8663C1.83701 16.054 2.02469 16.1892 2.32281 16.268C2.48552 16.311 2.69821 16.3388 2.93788 16.3388C3.49377 16.3387 4.19428 16.1891 4.7494 15.7326C5.30265 15.2775 5.52889 14.6572 5.62013 14.1865C5.76177 14.0253 5.87505 13.8412 5.95514 13.6422C6.00557 13.5168 6.04253 13.3864 6.06538 13.2531C6.09643 13.0716 6.02459 12.8903 5.87778 12.78ZM5.11761 13.8336C5.07448 13.8781 5.04596 13.9347 5.03587 13.9959C4.97373 14.3722 4.80651 14.8974 4.36268 15.2624C3.82606 15.7036 3.07076 15.7656 2.63639 15.7097C2.78129 15.6496 2.91973 15.575 3.04958 15.4871C3.09448 15.4566 3.13042 15.4146 3.15368 15.3656C3.17693 15.3165 3.18664 15.2622 3.18182 15.2081C3.17699 15.1541 3.1578 15.1023 3.12622 15.0581C3.09465 15.014 3.05185 14.9791 3.00225 14.957C2.24427 14.6201 2.12486 14.0466 2.17194 13.5968C2.56881 13.9188 3.06802 14.0879 3.57892 14.0732C3.65826 14.0712 3.73367 14.0382 3.78906 13.9814C3.84445 13.9245 3.87545 13.8483 3.87546 13.7689V13.5958L3.87542 13.5917C3.87444 13.5233 3.88842 13.4554 3.91639 13.3929C3.94435 13.3305 3.98563 13.2748 4.03732 13.23C4.08393 13.1892 4.13814 13.1581 4.19682 13.1385C4.25551 13.1188 4.31751 13.111 4.37924 13.1155C4.44099 13.1196 4.5013 13.1359 4.5567 13.1635C4.61209 13.1911 4.66146 13.2295 4.70195 13.2763C4.7462 13.3271 4.80609 13.3619 4.87222 13.3751C5.05239 13.4109 5.23475 13.4063 5.41082 13.3606C5.34851 13.5377 5.24846 13.6991 5.11761 13.8336ZM17.186 10.6084C17.1788 10.6084 17.1717 10.6087 17.1644 10.6087V9.95358C17.1717 9.95362 17.1788 9.95386 17.186 9.95386C19.2891 9.95386 21 8.24296 21 6.13989C21 4.0283 19.2753 2.31423 17.1644 2.32621V2.03755C17.1644 0.974508 16.2995 0.109619 15.2365 0.109619H5.98246C4.91942 0.109619 4.05453 0.974508 4.05453 2.03755V2.32621C3.30877 2.32187 2.58517 2.53296 1.9619 2.93669C1.92816 2.95834 1.89903 2.98643 1.87618 3.01937C1.85332 3.0523 1.8372 3.08943 1.82873 3.12861C1.82027 3.16779 1.81962 3.20826 1.82684 3.24769C1.83405 3.28712 1.84898 3.32474 1.87077 3.35838C1.89256 3.39203 1.92078 3.42104 1.95382 3.44375C1.98685 3.46646 2.02404 3.48242 2.06326 3.49072C2.10248 3.49902 2.14295 3.49949 2.18235 3.49211C2.22175 3.48472 2.2593 3.46963 2.29285 3.44769C2.81088 3.11211 3.41259 2.93474 4.0329 2.93474C5.80022 2.93474 7.23805 4.37257 7.23805 6.13989C7.23805 7.90721 5.80022 9.34504 4.0329 9.34504C2.26558 9.34504 0.82775 7.90721 0.82775 6.13989C0.82775 5.49917 1.01612 4.88085 1.3724 4.35183C1.41674 4.28486 1.43282 4.20308 1.41713 4.12431C1.40144 4.04553 1.35526 3.97615 1.28864 3.93129C1.22202 3.88642 1.14036 3.8697 1.06147 3.88477C0.982576 3.89984 0.912836 3.94548 0.867446 4.01174C0.44322 4.64167 0.218931 5.37753 0.218931 6.13989C0.218931 8.24292 1.92983 9.95386 4.0329 9.95386C4.04012 9.95386 4.04727 9.95362 4.05449 9.95358V10.6163C3.9744 10.6111 3.89418 10.6085 3.81393 10.6085C1.7109 10.6084 0 12.3194 0 14.4224C0 16.5254 1.7109 18.2364 3.81397 18.2364C3.89478 18.2364 3.97494 18.2336 4.05453 18.2286V18.9627C4.05453 20.0258 4.91942 20.8906 5.98246 20.8906H15.2365C16.2995 20.8906 17.1644 20.0258 17.1644 18.9627V18.2362C17.1717 18.2362 17.1788 18.2364 17.186 18.2364C19.2891 18.2364 21 16.5255 21 14.4224C21 12.3194 19.2891 10.6084 17.186 10.6084ZM17.186 2.93474C18.9534 2.93474 20.3912 4.37257 20.3912 6.13989C20.3912 7.90721 18.9534 9.34504 17.186 9.34504C15.4187 9.34504 13.9809 7.90721 13.9809 6.13989C13.9809 4.37257 15.4187 2.93474 17.186 2.93474ZM16.5556 9.90142V10.6601C16.3488 10.6942 16.1452 10.7454 15.9468 10.8131V9.74698C16.1451 9.81528 16.3487 9.86694 16.5556 9.90142ZM5.27217 2.24045V2.53272C5.07387 2.46444 4.87022 2.41278 4.66335 2.37828V2.03751C4.66335 1.31013 5.25508 0.718398 5.98246 0.718398H15.2365C15.9639 0.718398 16.5556 1.31013 16.5556 2.03751V2.37828C16.3487 2.41278 16.1451 2.46444 15.9468 2.53272V2.24045C15.9468 1.73691 15.5371 1.32722 15.0336 1.32722H13.9154C13.5685 1.32722 13.2863 1.60942 13.2863 1.95633C13.2862 2.02111 13.2604 2.08322 13.2146 2.12902C13.1688 2.17483 13.1067 2.20059 13.0419 2.20067H8.17705C8.11227 2.20059 8.05016 2.17483 8.00434 2.12902C7.95853 2.08322 7.93276 2.02111 7.93267 1.95633C7.93267 1.78809 7.86728 1.63008 7.74771 1.51055C7.68937 1.45228 7.62011 1.4061 7.5439 1.37464C7.46768 1.34318 7.38601 1.32706 7.30356 1.32722H6.18536C5.68182 1.32722 5.27217 1.73691 5.27217 2.24045ZM4.66335 9.90142C4.87022 9.86692 5.07387 9.81526 5.27217 9.74698V10.8984C5.07509 10.8165 4.87142 10.7514 4.66335 10.7039V9.90142ZM3.81397 17.6276C2.04665 17.6276 0.608819 16.1898 0.608819 14.4224C0.608819 12.6551 2.04665 11.2172 3.81397 11.2172C5.58129 11.2172 7.01912 12.6551 7.01912 14.4224C7.01912 16.2905 5.54452 17.6276 3.81397 17.6276ZM16.5556 18.9627C16.5556 19.6901 15.9639 20.2818 15.2365 20.2818H5.98246C5.25508 20.2818 4.66335 19.6901 4.66335 18.9627V18.1409C4.87142 18.0934 5.07509 18.0283 5.27217 17.9464V18.7597C5.27217 19.2633 5.68187 19.673 6.1854 19.673H15.0336C15.5371 19.673 15.9468 19.2633 15.9468 18.7597V18.0296C16.1451 18.0978 16.3487 18.1495 16.5556 18.184V18.9627ZM17.186 17.6276C15.4187 17.6276 13.9809 16.1898 13.9809 14.4224C13.9809 14.1477 14.0156 13.8751 14.0841 13.6121C14.1045 13.5339 14.093 13.4509 14.0521 13.3813C14.0113 13.3117 13.9444 13.2611 13.8663 13.2408C13.8276 13.2307 13.7873 13.2283 13.7477 13.2338C13.7081 13.2393 13.67 13.2525 13.6355 13.2727C13.601 13.293 13.5709 13.3198 13.5468 13.3517C13.5227 13.3836 13.5051 13.4199 13.495 13.4586C13.4132 13.7733 13.3719 14.0972 13.3721 14.4224C13.3721 15.8553 14.1666 17.106 15.338 17.7577V18.7597C15.338 18.9276 15.2015 19.0641 15.0336 19.0641H6.18544C6.01757 19.0641 5.88103 18.9276 5.88103 18.7597V17.6262C6.93145 16.9462 7.62798 15.7641 7.62798 14.4224C7.62798 13.0806 6.93145 11.8986 5.88103 11.2185V9.47513C7.05248 8.82345 7.84695 7.57277 7.84695 6.13985C7.84695 4.70693 7.05248 3.45626 5.88103 2.80458V2.24045C5.88103 2.07257 6.01757 1.93604 6.18544 1.93604H7.30364C7.30936 1.93604 7.31452 1.93827 7.31809 1.94188C7.32002 1.94375 7.32153 1.946 7.32254 1.94849C7.32354 1.95098 7.32402 1.95365 7.32393 1.95633C7.32393 2.42674 7.70668 2.80949 8.17713 2.80949H13.042C13.5124 2.80949 13.8952 2.42674 13.8952 1.95633C13.8952 1.94517 13.9043 1.93604 13.9155 1.93604H15.0337C15.2015 1.93604 15.3381 2.07257 15.3381 2.24045V2.80458C14.1666 3.45626 13.3721 4.70693 13.3721 6.13985C13.3721 7.57366 14.1676 8.82499 15.3402 9.47634C15.3389 9.48783 15.3381 9.49948 15.3381 9.51133V11.0833C14.8892 11.3321 14.4893 11.6735 14.164 12.0955C14.115 12.1594 14.0933 12.2402 14.1038 12.3201C14.1142 12.4 14.1559 12.4725 14.2197 12.5217C14.2835 12.5709 14.3643 12.5928 14.4442 12.5826C14.5241 12.5724 14.5967 12.5309 14.6461 12.4672C15.2585 11.6725 16.1712 11.2172 17.1861 11.2172C18.9534 11.2172 20.3913 12.6551 20.3913 14.4224C20.3912 16.1898 18.9534 17.6276 17.186 17.6276ZM11.725 10.3994C11.656 10.3576 11.5732 10.3448 11.4947 10.364C11.4163 10.3832 11.3487 10.4327 11.3068 10.5017C11.2504 10.5946 11.1709 10.6742 11.0796 10.7332C11.0362 10.7611 10.9858 10.7763 10.9342 10.777C10.8826 10.7778 10.8318 10.7641 10.7876 10.7375L10.332 10.4609C10.2412 10.4057 10.1915 10.2998 10.2018 10.1925C10.2121 10.0859 10.2463 9.98306 10.3017 9.89148C10.3437 9.82247 10.3564 9.73964 10.3373 9.66121C10.3181 9.58278 10.2686 9.51517 10.1996 9.47326C10.1306 9.43135 10.0478 9.41856 9.96932 9.43772C9.89089 9.45688 9.82328 9.50641 9.78137 9.57542C9.67822 9.74586 9.61473 9.93731 9.5956 10.1356L9.59503 10.1417C9.56288 10.4769 9.72812 10.8064 10.016 10.9813L10.4716 11.2579C10.6098 11.3415 10.7684 11.3856 10.93 11.3854C11.1005 11.3857 11.2673 11.3367 11.4105 11.2443C11.5785 11.1354 11.7234 10.9888 11.8272 10.8177C11.8691 10.7487 11.8819 10.6658 11.8627 10.5874C11.8435 10.509 11.794 10.4414 11.725 10.3994ZM18.7878 14.096L16.6534 12.863C16.3773 12.7005 16.0175 12.9118 16.0199 13.2287V15.6947C16.0171 16.0109 16.3795 16.2219 16.6534 16.0604L18.7878 14.8275C19.0638 14.671 19.0628 14.2517 18.7878 14.096ZM16.6287 15.3715V13.5519L18.2038 14.4617L16.6287 15.3715ZM10.5356 7.74356C9.12088 7.78066 7.94444 8.91558 7.85734 10.3273C7.8351 10.6868 7.88181 11.041 7.99607 11.38L7.67193 12.3022C7.61182 12.4731 7.65411 12.6589 7.78221 12.787C7.91031 12.9151 8.09612 12.9574 8.26703 12.8973L8.90991 12.6713C9.41429 13.0668 10.0449 13.274 10.6858 13.2566C12.1593 13.2166 13.3621 11.9843 13.367 10.5095C13.3695 9.75741 13.0747 9.0537 12.5368 8.52801C11.9991 8.00239 11.288 7.72339 10.5356 7.74356ZM10.6693 12.648C10.1666 12.6608 9.67406 12.4984 9.28096 12.1886C9.17356 12.1039 9.04425 12.0598 8.91331 12.0598C8.84801 12.0598 8.78226 12.0708 8.7187 12.0932L8.34443 12.2247L8.57282 11.575C8.61633 11.4513 8.61727 11.3155 8.57534 11.1926C8.48458 10.9264 8.44745 10.6479 8.4649 10.3648C8.5328 9.26508 9.44932 8.38104 10.5514 8.3521C11.1382 8.33619 11.6921 8.55382 12.1112 8.96335C12.5303 9.37301 12.76 9.92139 12.758 10.5074C12.7543 11.6566 11.8172 12.6168 10.6693 12.648Z" fill="#E16F72"/>
</g>
<defs>
<clipPath id="clip0_12_33">
<rect width="21" height="21" fill="white"/>
</clipPath>
</defs>
</svg>
