<svg width="22" height="22" viewBox="0 0 22 22" fill="none" xmlns="http://www.w3.org/2000/svg">
<g clip-path="url(#clip0_12_36)">
<path d="M18.9062 15.4708V14.0938C18.9057 13.6381 18.7244 13.2012 18.4022 12.879C18.08 12.5568 17.6432 12.3755 17.1875 12.375H14.2938C14.612 11.7881 14.8686 11.1698 15.0597 10.5301L16.3659 9.48475C16.569 9.32265 16.7174 9.10217 16.7912 8.85306C16.865 8.60396 16.8606 8.33821 16.7786 8.09167C16.6966 7.84514 16.541 7.62969 16.3327 7.47439C16.1244 7.3191 15.8735 7.23143 15.6138 7.22322L16.3797 5.11741C16.5751 4.57999 16.6381 4.00339 16.5634 3.43646C16.4886 2.86952 16.2783 2.32896 15.9502 1.86057C15.6222 1.39218 15.1861 1.00977 14.6789 0.745726C14.1716 0.481685 13.6082 0.343799 13.0364 0.34375H10.1179C7.9342 0.343206 5.79433 0.956909 3.94281 2.11475C3.88718 2.14921 3.84254 2.19883 3.81414 2.25779C3.78574 2.31674 3.77476 2.38258 3.78248 2.44756C3.79021 2.51254 3.81632 2.57397 3.85775 2.62462C3.89919 2.67527 3.95422 2.71304 4.01638 2.7335L4.84516 3.0085C4.95923 3.04655 5.06432 3.10751 5.15399 3.18763C5.24366 3.26775 5.31601 3.36535 5.36661 3.47443C5.41721 3.58352 5.44499 3.70179 5.44824 3.822C5.45149 3.9422 5.43015 4.06181 5.38553 4.17347C5.30317 4.37932 5.26533 4.60029 5.27452 4.82182C5.2837 5.04335 5.33969 5.26042 5.43881 5.45875L6.325 7.22941C6.07148 7.24959 5.82989 7.34553 5.6316 7.50478C5.43331 7.66402 5.28748 7.87921 5.21305 8.12239C5.13863 8.36558 5.13904 8.62552 5.21424 8.86847C5.28944 9.11142 5.43595 9.32614 5.63475 9.48475L6.941 10.5301C7.13183 11.1698 7.38825 11.788 7.70619 12.375H4.8125C4.35683 12.3755 3.91997 12.5568 3.59776 12.879C3.27555 13.2012 3.0943 13.6381 3.09375 14.0938V15.4708C2.28018 15.8107 1.58514 16.3833 1.09588 17.1168C0.60663 17.8503 0.344969 18.712 0.34375 19.5938V21.3125C0.34375 21.4037 0.379966 21.4911 0.444432 21.5556C0.508898 21.62 0.596332 21.6562 0.6875 21.6562H21.3125C21.4037 21.6562 21.4911 21.62 21.5556 21.5556C21.62 21.4911 21.6562 21.4037 21.6562 21.3125V19.5938C21.655 18.712 21.3934 17.8503 20.9041 17.1168C20.4149 16.3833 19.7198 15.8107 18.9062 15.4708ZM13.75 7.21875H11.6875C11.5963 7.21875 11.5089 7.25497 11.4444 7.31943C11.38 7.3839 11.3438 7.47133 11.3438 7.5625V7.90625H10.6562V7.5625C10.6562 7.47133 10.62 7.3839 10.5556 7.31943C10.4911 7.25497 10.4037 7.21875 10.3125 7.21875H7.21875V6.71516L9.36444 5.28481C9.82616 4.97635 10.3691 4.81196 10.9244 4.8125C11.7188 4.81157 12.4894 4.54121 13.1103 4.04559L13.672 3.59631L14.2615 4.48113C14.6009 4.98901 14.7818 5.58627 14.7812 6.19713V7.21875H13.75ZM13.4062 7.90625V8.9375C13.4062 9.02867 13.37 9.1161 13.3056 9.18057C13.2411 9.24503 13.1537 9.28125 13.0625 9.28125H12.375C12.2838 9.28125 12.1964 9.24503 12.1319 9.18057C12.0675 9.1161 12.0312 9.02867 12.0312 8.9375V7.90625H13.4062ZM9.96875 7.90625V8.9375C9.96875 9.02867 9.93253 9.1161 9.86807 9.18057C9.8036 9.24503 9.71617 9.28125 9.625 9.28125H8.9375C8.84633 9.28125 8.7589 9.24503 8.69443 9.18057C8.62997 9.1161 8.59375 9.02867 8.59375 8.9375V7.90625H9.96875ZM16.1562 8.49063C16.1564 8.57832 16.1368 8.66492 16.0988 8.74397C16.0608 8.82301 16.0055 8.89246 15.9369 8.94713L15.3137 9.44556C15.4046 8.93727 15.4546 8.42252 15.4633 7.90625H15.5719C15.6486 7.90625 15.7246 7.92137 15.7955 7.95073C15.8664 7.9801 15.9308 8.02315 15.9851 8.07741C16.0394 8.13167 16.0824 8.1961 16.1118 8.26699C16.1411 8.33789 16.1562 8.41389 16.1562 8.49063ZM6.02353 4.42888C6.10295 4.23026 6.14095 4.01752 6.13521 3.8037C6.12947 3.58987 6.0801 3.37948 5.99014 3.18542C5.90017 2.99136 5.77151 2.81772 5.61203 2.67517C5.45256 2.53261 5.26564 2.42414 5.06275 2.35641L4.95756 2.32203C6.54549 1.47427 8.31788 1.03093 10.1179 1.03125H13.0364C13.4976 1.03134 13.952 1.14256 14.3611 1.3555C14.7702 1.56845 15.122 1.87684 15.3866 2.25456C15.6512 2.63229 15.821 3.06822 15.8814 3.52545C15.9418 3.98268 15.8912 4.44774 15.7338 4.88125L15.4351 5.70281C15.3604 5.12885 15.1546 4.57979 14.8335 4.09819L14.036 2.90159C14.0095 2.86196 13.9751 2.82826 13.9349 2.80264C13.8948 2.77701 13.8497 2.76003 13.8026 2.75275C13.7555 2.74564 13.7075 2.74829 13.6615 2.76053C13.6155 2.77277 13.5725 2.79434 13.5352 2.82391L12.6809 3.509C12.1819 3.90696 11.5627 4.12409 10.9244 4.125C10.2333 4.12437 9.55756 4.32895 8.98287 4.71281L6.68422 6.24525C6.66291 6.25972 6.6433 6.27656 6.62578 6.29544L6.05378 5.15109C5.99804 5.03967 5.96652 4.9177 5.96131 4.79322C5.9561 4.66874 5.9773 4.54457 6.02353 4.42888ZM6.06341 8.94781C5.96853 8.87228 5.8995 8.7691 5.86589 8.65257C5.83228 8.53605 5.83576 8.41195 5.87584 8.2975C5.91592 8.18304 5.99061 8.08388 6.08957 8.01378C6.18853 7.94367 6.30685 7.9061 6.42813 7.90625H6.53606C6.54471 8.42275 6.59471 8.93773 6.68559 9.44625L6.06341 8.94781ZM7.22425 7.90625H7.90625V8.9375C7.90625 9.21101 8.0149 9.47331 8.2083 9.6667C8.40169 9.8601 8.664 9.96875 8.9375 9.96875H9.625C9.8985 9.96875 10.1608 9.8601 10.3542 9.6667C10.5476 9.47331 10.6562 9.21101 10.6562 8.9375V8.59375H11.3438V8.9375C11.3438 9.21101 11.4524 9.47331 11.6458 9.6667C11.8392 9.8601 12.1015 9.96875 12.375 9.96875H13.0625C13.336 9.96875 13.5983 9.8601 13.7917 9.6667C13.9851 9.47331 14.0938 9.21101 14.0938 8.9375V7.90625H14.7758C14.7491 9.48182 14.3092 11.0228 13.5001 12.375H8.49991C7.69082 11.0228 7.25094 9.48182 7.22425 7.90625ZM4.8125 13.0625H17.1875C17.461 13.0625 17.7233 13.1712 17.9167 13.3645C18.1101 13.5579 18.2188 13.8202 18.2188 14.0938V20.9688H3.78125V14.0938C3.78125 13.8202 3.8899 13.5579 4.0833 13.3645C4.27669 13.1712 4.539 13.0625 4.8125 13.0625ZM1.03125 19.5938C1.03218 18.8972 1.22521 18.2144 1.58909 17.6205C1.95297 17.0266 2.47362 16.5446 3.09375 16.2274V20.9688H1.03125V19.5938ZM20.9688 20.9688H18.9062V16.2274C19.5264 16.5446 20.047 17.0266 20.4109 17.6206C20.7747 18.2145 20.9678 18.8972 20.9688 19.5938V20.9688Z" fill="#E16F72"/>
<path d="M11 19.9375C11.2719 19.9375 11.5378 19.8569 11.7639 19.7058C11.99 19.5547 12.1663 19.3399 12.2703 19.0887C12.3744 18.8374 12.4016 18.561 12.3486 18.2943C12.2955 18.0275 12.1646 17.7825 11.9723 17.5902C11.78 17.3979 11.535 17.267 11.2682 17.2139C11.0015 17.1609 10.7251 17.1881 10.4738 17.2922C10.2226 17.3962 10.0078 17.5725 9.85673 17.7986C9.70564 18.0247 9.625 18.2906 9.625 18.5625C9.625 18.9272 9.76987 19.2769 10.0277 19.5348C10.2856 19.7926 10.6353 19.9375 11 19.9375ZM11 17.875C11.136 17.875 11.2689 17.9153 11.382 17.9909C11.495 18.0664 11.5831 18.1738 11.6352 18.2994C11.6872 18.425 11.7008 18.5633 11.6743 18.6966C11.6478 18.83 11.5823 18.9525 11.4861 19.0486C11.39 19.1448 11.2675 19.2103 11.1341 19.2368C11.0008 19.2633 10.8625 19.2497 10.7369 19.1977C10.6113 19.1456 10.5039 19.0575 10.4284 18.9445C10.3528 18.8314 10.3125 18.6985 10.3125 18.5625C10.3125 18.3802 10.3849 18.2053 10.5139 18.0764C10.6428 17.9474 10.8177 17.875 11 17.875Z" fill="#E16F72"/>
<path d="M8.69447 16.7431L9.18053 16.2571L8.04857 15.1251L9.18053 13.9931L8.69447 13.5071L7.31947 14.8821C7.25503 14.9465 7.21883 15.034 7.21883 15.1251C7.21883 15.2163 7.25503 15.3037 7.31947 15.3681L8.69447 16.7431Z" fill="#E16F72"/>
<path d="M13.3055 16.7431L14.6805 15.3681C14.745 15.3037 14.7812 15.2163 14.7812 15.1251C14.7812 15.034 14.745 14.9465 14.6805 14.8821L13.3055 13.5071L12.8195 13.9931L13.9514 15.1251L12.8195 16.2571L13.3055 16.7431Z" fill="#E16F72"/>
<path d="M11.7565 13.5439L9.69347 16.2935L10.2434 16.7061L12.3064 13.9565L11.7565 13.5439Z" fill="#E16F72"/>
</g>
<defs>
<clipPath id="clip0_12_36">
<rect width="22" height="22" fill="white"/>
</clipPath>
</defs>
</svg>
