<svg width="23" height="21" viewBox="0 0 23 21" fill="none" xmlns="http://www.w3.org/2000/svg">
<path d="M21.6583 0H1.34167C0.60375 0 0 0.60375 0 1.34167V12.65V13.9917C0 14.7296 0.60375 15.3333 1.34167 15.3333H9.01792L7.94458 18.0167H6.9C5.84104 18.0167 4.98333 18.8744 4.98333 19.9333C4.98333 20.1442 5.15583 20.3167 5.36667 20.3167H17.6333C17.8442 20.3167 18.0167 20.1442 18.0167 19.9333C18.0167 18.8744 17.159 18.0167 16.1 18.0167H15.0554L13.9821 15.3333H21.6583C22.3962 15.3333 23 14.7296 23 13.9917V12.65V1.34167C23 0.60375 22.3962 0 21.6583 0ZM1.34167 0.766667H21.6583C21.9746 0.766667 22.2333 1.02542 22.2333 1.34167V12.2667H0.766667V1.34167C0.766667 1.02542 1.02542 0.766667 1.34167 0.766667ZM17.1829 19.55H5.81708C5.97521 19.1044 6.40167 18.7833 6.9 18.7833H8.20813H14.7919H16.1C16.5983 18.7833 17.0248 19.1044 17.1829 19.55ZM14.2312 18.0167H8.76875L9.84208 15.3333H13.1579L14.2312 18.0167ZM22.2333 13.9917C22.2333 14.3079 21.9746 14.5667 21.6583 14.5667H17.5375H13.4167H9.58333H1.34167C1.02542 14.5667 0.766667 14.3079 0.766667 13.9917V13.0333H22.2333V13.9917Z" fill="#E16F72"/>
<path d="M2.3 6.51199V8.43345C2.3 9.06595 2.8175 9.58345 3.45 9.58345C4.0825 9.58345 4.6 9.06595 4.6 8.43345V6.64616L6.04708 6.80907C6.54062 6.86178 7.015 7.00553 7.45583 7.22595L8.26083 7.62845C8.26083 7.62845 8.26562 7.62845 8.26562 7.63324C8.27521 7.63803 8.28479 7.64282 8.29437 7.64761C8.29917 7.64761 8.30396 7.65241 8.30396 7.65241C8.31354 7.6572 8.32312 7.6572 8.33271 7.66199C8.3375 7.66199 8.34229 7.66199 8.34229 7.66678C8.35187 7.66678 8.36146 7.67157 8.37583 7.67157H8.38542C8.39979 7.67157 8.41417 7.67636 8.42854 7.67636H9.96187C10.1727 7.67636 10.3452 7.50386 10.3452 7.29303V1.91678C10.3452 1.70595 10.1727 1.53345 9.96187 1.53345H8.42854C8.41896 1.53345 8.41417 1.53345 8.40458 1.53345C8.39979 1.53345 8.395 1.53345 8.39021 1.53345C8.36146 1.53824 8.32792 1.54303 8.30396 1.55261C8.29917 1.55261 8.29917 1.55261 8.29437 1.55741C8.28479 1.5622 8.27042 1.56699 8.26083 1.57178C8.26083 1.57178 8.25604 1.57178 8.25604 1.57657L7.45104 1.97907C7.00542 2.19949 6.53104 2.34324 6.04229 2.39595L3.43083 2.68345H2.37667C1.91187 2.68345 1.53333 3.06199 1.53333 3.52678V5.67345C1.53333 6.11428 1.86875 6.47366 2.3 6.51199ZM3.83333 8.43345C3.83333 8.64428 3.66083 8.81678 3.45 8.81678C3.23917 8.81678 3.06667 8.64428 3.06667 8.43345V6.51678H3.43083L3.83333 6.55991V8.43345ZM9.58333 6.90011H8.81667V2.30011H9.58333V6.90011ZM6.13333 3.15303C6.71792 3.08595 7.27854 2.92303 7.80083 2.65949L8.05 2.53491V6.66053L7.80083 6.53595C7.27854 6.27241 6.71312 6.10949 6.13333 6.04241L3.83333 5.78845V3.40699L6.13333 3.15303ZM2.3 3.52678C2.3 3.48366 2.33354 3.45011 2.37667 3.45011H3.06667V5.75011H2.68333H2.37667C2.33354 5.75011 2.3 5.71657 2.3 5.67345V3.52678Z" fill="#E16F72"/>
<path d="M11.9935 6.02315C12.1421 6.17169 12.3865 6.17169 12.535 6.02315L13.7569 4.80127L14.6433 5.98002C14.7152 6.07106 14.8206 6.12856 14.9356 6.13336H14.95C15.0602 6.13336 15.1704 6.08544 15.2423 5.99919L17.3075 3.58898L18.5533 4.52336C18.7067 4.63836 18.9175 4.62398 19.0565 4.48981L20.7 2.84627V3.45002C20.7 3.66086 20.8725 3.83336 21.0833 3.83336C21.2942 3.83336 21.4667 3.66086 21.4667 3.45002V1.91669C21.4667 1.90231 21.4667 1.89273 21.4667 1.87836C21.4667 1.87356 21.4667 1.86877 21.4667 1.86398C21.4667 1.8544 21.4667 1.84961 21.4619 1.84002C21.4619 1.83523 21.4571 1.83044 21.4571 1.82086C21.4571 1.81606 21.4523 1.80648 21.4523 1.80169C21.4523 1.7969 21.4475 1.79211 21.4475 1.78252C21.4475 1.77773 21.4427 1.76815 21.4427 1.76336C21.4427 1.75856 21.4379 1.75377 21.4331 1.74898C21.4283 1.74419 21.4283 1.73461 21.4235 1.72981C21.4187 1.72502 21.4187 1.72023 21.414 1.71544C21.4092 1.71065 21.4092 1.70586 21.4044 1.69627C21.3996 1.69148 21.3948 1.68669 21.3948 1.6819C21.39 1.67711 21.39 1.67231 21.3852 1.66752C21.3804 1.65794 21.3708 1.64836 21.3612 1.64356C21.3612 1.64356 21.3612 1.64356 21.3565 1.63877C21.3565 1.63877 21.3565 1.63877 21.3517 1.63877C21.3421 1.62919 21.3373 1.6244 21.3277 1.61481C21.3229 1.61002 21.3181 1.61002 21.3133 1.60523C21.3085 1.60044 21.3037 1.59565 21.299 1.59565C21.2942 1.59086 21.2894 1.59086 21.2846 1.58606C21.2798 1.58127 21.275 1.58127 21.2702 1.57648C21.2654 1.57169 21.2606 1.57169 21.251 1.5669C21.2462 1.56211 21.2415 1.56211 21.2319 1.55731C21.2271 1.55731 21.2223 1.55252 21.2175 1.55252C21.2127 1.55252 21.2031 1.54773 21.1983 1.54773C21.1935 1.54773 21.1887 1.54294 21.184 1.54294C21.1792 1.54294 21.1696 1.53815 21.1648 1.53815C21.16 1.53815 21.1504 1.53815 21.1456 1.53336C21.1408 1.53336 21.1312 1.53336 21.1265 1.52856C21.1169 1.52856 21.1025 1.52856 21.0929 1.52856H21.0881H19.5548C19.344 1.52856 19.1715 1.70106 19.1715 1.9119C19.1715 2.12273 19.344 2.29523 19.5548 2.29523H20.1633L18.7546 3.70398L17.4896 2.75523C17.3267 2.63544 17.1015 2.6594 16.9673 2.81273L14.9787 5.1319L14.1162 3.9819C14.0492 3.89086 13.9485 3.83815 13.8383 3.82856C13.7281 3.81898 13.6179 3.86211 13.5412 3.93877L12.2667 5.20856L11.7731 4.71502C11.6246 4.56648 11.3802 4.56648 11.2317 4.71502C11.0831 4.86356 11.0831 5.10794 11.2317 5.25648L11.9935 6.02315Z" fill="#E16F72"/>
<path d="M9.96667 8.81665H5.75C5.53917 8.81665 5.36667 8.98915 5.36667 9.19998C5.36667 9.41082 5.53917 9.58332 5.75 9.58332H9.96667C10.1775 9.58332 10.35 9.41082 10.35 9.19998C10.35 8.98915 10.1775 8.81665 9.96667 8.81665Z" fill="#E16F72"/>
<path d="M9.96667 10.3499H3.45001C3.23917 10.3499 3.06667 10.5224 3.06667 10.7332C3.06667 10.944 3.23917 11.1165 3.45001 11.1165H9.96667C10.1775 11.1165 10.35 10.944 10.35 10.7332C10.35 10.5224 10.1775 10.3499 9.96667 10.3499Z" fill="#E16F72"/>
<path d="M21.0833 10.7334V5.36673C21.0833 5.1559 20.9108 4.9834 20.7 4.9834H19.1667C18.9558 4.9834 18.7833 5.1559 18.7833 5.36673V10.7334H18.0167V6.51673C18.0167 6.3059 17.8442 6.1334 17.6333 6.1334H16.1C15.8892 6.1334 15.7167 6.3059 15.7167 6.51673V10.7334H14.95V8.05007C14.95 7.83923 14.7775 7.66673 14.5667 7.66673H13.0333C12.8225 7.66673 12.65 7.83923 12.65 8.05007V10.7334H11.8833V7.2834C11.8833 7.07257 11.7108 6.90007 11.5 6.90007C11.2892 6.90007 11.1167 7.07257 11.1167 7.2834V11.1167C11.1167 11.3276 11.2892 11.5001 11.5 11.5001H21.0833C21.2942 11.5001 21.4667 11.3276 21.4667 11.1167C21.4667 10.9059 21.2942 10.7334 21.0833 10.7334ZM14.1833 10.7334H13.4167V8.4334H14.1833V10.7334ZM17.25 10.7334H16.4833V6.90007H17.25V10.7334ZM20.3167 10.7334H19.55V5.75007H20.3167V10.7334Z" fill="#E16F72"/>
<path d="M9.58334 14.1834H13.4167C13.6275 14.1834 13.8 14.0109 13.8 13.8001C13.8 13.5892 13.6275 13.4167 13.4167 13.4167H9.58334C9.3725 13.4167 9.2 13.5892 9.2 13.8001C9.2 14.0109 9.3725 14.1834 9.58334 14.1834Z" fill="#E16F72"/>
</svg>
