<svg width="23" height="23" viewBox="0 0 23 23" fill="none" xmlns="http://www.w3.org/2000/svg">
<path d="M11.5 0C6.81507 0 3.00372 3.81134 3.00372 8.49631C3.00372 10.0386 3.69542 11.6974 3.72441 11.7674C3.94781 12.2977 4.38862 13.1213 4.70648 13.6041L10.532 22.4307C10.7703 22.7926 11.1232 23 11.5 23C11.8769 23 12.2297 22.7926 12.4681 22.4312L18.2941 13.6041C18.6124 13.1213 19.0527 12.2977 19.2761 11.7674C19.3051 11.6979 19.9963 10.0391 19.9963 8.49631C19.9963 3.81134 16.185 0 11.5 0ZM18.3545 11.3796C18.1551 11.8548 17.7448 12.621 17.4594 13.0538L11.6335 21.881C11.5185 22.0554 11.482 22.0554 11.3671 21.881L5.54112 13.0538C5.25574 12.621 4.84542 11.8543 4.64601 11.3791C4.63751 11.3586 4.00329 9.83173 4.00329 8.49631C4.00329 4.3626 7.36633 0.999565 11.5 0.999565C15.6337 0.999565 18.9968 4.3626 18.9968 8.49631C18.9968 9.83372 18.361 11.3646 18.3545 11.3796Z" fill="#EE3F44"/>
<path d="M11.5001 3.99878C9.01964 3.99878 7.00201 6.0169 7.00201 8.49682C7.00201 10.9767 9.01964 12.9949 11.5001 12.9949C13.9805 12.9949 15.9981 10.9767 15.9981 8.49682C15.9981 6.0169 13.9805 3.99878 11.5001 3.99878ZM11.5001 11.9953C9.5714 11.9953 8.00158 10.426 8.00158 8.49682C8.00158 6.56766 9.5714 4.99834 11.5001 4.99834C13.4287 4.99834 14.9985 6.56766 14.9985 8.49682C14.9985 10.426 13.4287 11.9953 11.5001 11.9953Z" fill="#EE3F44"/>
</svg>
