<svg width="23" height="23" viewBox="0 0 23 23" fill="none" xmlns="http://www.w3.org/2000/svg">
<g clip-path="url(#clip0_7_53)">
<path d="M19.0213 23C18.6797 22.999 18.3418 22.9304 18.0269 22.7981C17.7121 22.6658 17.4266 22.4724 17.1869 22.2291L11.5094 16.5848L5.83183 22.2328C5.4672 22.6028 4.99958 22.8543 4.48992 22.9546C3.98025 23.0548 3.4522 22.9993 2.9746 22.795C2.49225 22.601 2.07962 22.2661 1.79059 21.8339C1.50155 21.4018 1.34955 20.8925 1.35442 20.3726V5.45963C1.35442 4.23542 1.84074 3.06136 2.70638 2.19571C3.57203 1.33006 4.7461 0.84375 5.97031 0.84375L17.0484 0.84375C17.6546 0.84375 18.2548 0.963143 18.8148 1.19511C19.3749 1.42708 19.8837 1.76709 20.3123 2.19571C20.741 2.62433 21.081 3.13319 21.3129 3.69321C21.5449 4.25324 21.6643 4.85347 21.6643 5.45963V20.3726C21.6695 20.8921 21.518 21.401 21.2297 21.8331C20.9413 22.2652 20.5295 22.6004 20.0478 22.795C19.7227 22.931 19.3737 23.0007 19.0213 23ZM5.97031 2.6901C5.23578 2.6901 4.53134 2.98189 4.01195 3.50128C3.49256 4.02067 3.20078 4.72511 3.20078 5.45963V20.3726C3.20044 20.5265 3.24571 20.6769 3.33085 20.8051C3.416 20.9332 3.5372 21.0332 3.67916 21.0925C3.82111 21.1517 3.97745 21.1676 4.12842 21.1381C4.27939 21.1085 4.41822 21.0349 4.52738 20.9265L10.8631 14.6295C11.0361 14.4576 11.2701 14.3611 11.514 14.3611C11.7579 14.3611 11.9919 14.4576 12.1648 14.6295L18.4932 20.9247C18.6024 21.0331 18.7412 21.1067 18.8922 21.1362C19.0431 21.1658 19.1995 21.1499 19.3414 21.0906C19.4834 21.0313 19.6046 20.9313 19.6897 20.8032C19.7749 20.6751 19.8201 20.5246 19.8198 20.3708V5.45963C19.8198 4.72511 19.528 4.02067 19.0086 3.50128C18.4892 2.98189 17.7848 2.6901 17.0503 2.6901H5.97031Z" fill="#ED3237"/>
</g>
<defs>
<clipPath id="clip0_7_53">
<rect width="22.1562" height="22.1562" fill="white" transform="translate(0.431274 0.84375)"/>
</clipPath>
</defs>
</svg>
