<svg width="24" height="24" viewBox="0 0 24 24" fill="none" xmlns="http://www.w3.org/2000/svg">
<g clip-path="url(#clip0_9_315)">
<path d="M2.18826 13.9541C1.47712 13.9541 0.787625 13.725 0.33878 13.4948L0 14.8734C0.415639 15.1033 1.24766 15.3219 2.09014 15.3219C4.11461 15.3219 5.0664 14.2716 5.0664 13.0352C5.0664 11.9957 4.45339 11.3174 3.15162 10.8357C2.19946 10.4742 1.78382 10.2667 1.78382 9.79623C1.78382 9.41305 2.13379 9.08472 2.85612 9.08472C3.57845 9.08472 4.10379 9.29291 4.39891 9.43506L4.77127 8.08927C4.33325 7.89227 3.72061 7.71729 2.88895 7.71729C1.14916 7.71729 0.0984998 8.6799 0.0984998 9.93838C0.0984998 11.0107 0.897318 11.689 2.12297 12.1158C3.00909 12.4333 3.35944 12.696 3.35944 13.1549C3.35944 13.637 2.95425 13.9541 2.18826 13.9541Z" fill="#E16F72"/>
<path d="M10.8988 13.8448H7.86805V12.0942H10.5813V10.7372H7.86805V9.20521H10.7458V7.8374H6.19355V15.2126H10.8988V13.8448Z" fill="#E16F72"/>
<path d="M16.5383 15.7723C17.5736 15.7723 18.5224 15.3996 19.2612 14.7824L20.7301 16.1532C20.7279 16.3062 20.7835 16.4577 20.9036 16.57L23.059 18.5825C23.1669 18.6833 23.3034 18.7329 23.4403 18.7329C23.59 18.7329 23.7396 18.6732 23.8496 18.5545C24.0604 18.3292 24.0481 17.974 23.8228 17.7635L21.6673 15.7514C21.5472 15.6391 21.3912 15.5947 21.2398 15.607L19.7903 14.2545C20.4137 13.5146 20.7917 12.5602 20.7917 11.5189C20.7917 9.17392 18.8844 7.2666 16.5394 7.2666C14.1944 7.2666 12.286 9.17466 12.286 11.5193C12.2856 13.865 14.1933 15.7723 16.5383 15.7723ZM16.5383 8.38629C18.2661 8.38629 19.6716 9.79178 19.6716 11.5193C19.6716 13.2467 18.2654 14.6526 16.5383 14.6526C14.8112 14.6526 13.4049 13.2467 13.4049 11.5193C13.4049 9.79178 14.8104 8.38629 16.5383 8.38629Z" fill="#E16F72"/>
</g>
<defs>
<clipPath id="clip0_9_315">
<rect width="24" height="24" fill="white"/>
</clipPath>
</defs>
</svg>
