<svg width="14" height="14" viewBox="0 0 14 14" fill="none" xmlns="http://www.w3.org/2000/svg">
<path d="M13.4873 0.51275C12.8048 -0.16975 11.6953 -0.16975 11.0128 0.51275L7.10033 4.42517C6.65933 4.86558 6.41667 5.45183 6.41667 6.07483V7C6.41667 7.322 6.67742 7.58333 7 7.58333H7.92517C8.54817 7.58333 9.13442 7.34008 9.57483 6.89967L13.4873 2.98725C14.1663 2.33567 14.1663 1.16433 13.4873 0.51275ZM12.6624 2.16242L8.75 6.07483C8.5295 6.29533 8.23667 6.41667 7.92517 6.41667H7.58333V6.07483C7.58333 5.768 7.70817 5.467 7.92517 5.25L11.8376 1.33758C12.0657 1.11008 12.4343 1.11008 12.6624 1.33758C12.8888 1.55458 12.8888 1.94542 12.6624 2.16242ZM7 10.5C6.67742 10.5 6.41667 10.2392 6.41667 9.91667C6.41667 9.59408 6.67742 9.33333 7 9.33333H8.75C9.07258 9.33333 9.33333 9.59408 9.33333 9.91667C9.33333 10.2392 9.07258 10.5 8.75 10.5H7ZM11.6667 8.16667V11.0833C11.6667 12.6916 10.3583 14 8.75 14H2.91667C1.30842 14 0 12.6916 0 11.0833V2.91667C0 1.30842 1.30842 0 2.91667 0H8.16667C8.48925 0 8.75 0.261333 8.75 0.583333C8.75 0.905333 8.48925 1.16667 8.16667 1.16667H2.91667C1.95183 1.16667 1.16667 1.95183 1.16667 2.91667V11.0833C1.16667 12.0482 1.95183 12.8333 2.91667 12.8333H8.75C9.71483 12.8333 10.5 12.0482 10.5 11.0833V8.16667C10.5 7.84408 10.7608 7.58333 11.0833 7.58333C11.4059 7.58333 11.6667 7.84408 11.6667 8.16667ZM5.34742 6.80575L4.36333 7.78983C4.11192 8.04125 3.78292 8.16783 3.45275 8.16783C3.14183 8.16783 2.83092 8.05525 2.583 7.82833L2.19275 7.49058C1.9495 7.27942 1.92325 6.91075 2.13383 6.6675C2.34558 6.42308 2.71367 6.39858 2.95692 6.60858L3.35883 6.95742C3.41892 7.01167 3.49183 7.01108 3.53792 6.965L4.522 5.98092C4.75008 5.75283 5.11875 5.75283 5.34683 5.98092C5.57492 6.209 5.5755 6.57767 5.34742 6.80575ZM5.34742 3.91242L4.36333 4.8965C4.11192 5.14792 3.78292 5.2745 3.45275 5.2745C3.14183 5.2745 2.83092 5.16192 2.583 4.935L2.19275 4.59725C1.9495 4.38608 1.92325 4.01742 2.13383 3.77417C2.34558 3.53033 2.71367 3.50525 2.95692 3.71525L3.35883 4.06408C3.41892 4.11892 3.49183 4.11775 3.53792 4.07167L4.522 3.08758C4.75008 2.8595 5.11875 2.8595 5.34683 3.08758C5.57492 3.31567 5.5755 3.68433 5.34742 3.91242ZM5.34742 8.89758C5.5755 9.12567 5.5755 9.49433 5.34742 9.72242L4.36333 10.7065C4.11192 10.9579 3.78292 11.0845 3.45275 11.0845C3.14183 11.0845 2.83092 10.9719 2.583 10.745L2.19275 10.4072C1.9495 10.1961 1.92325 9.828 2.13383 9.58417C2.34558 9.34092 2.71367 9.31467 2.95692 9.52525L3.35883 9.87408C3.41892 9.92833 3.49183 9.92775 3.53792 9.88167L4.522 8.89758C4.75008 8.6695 5.11933 8.6695 5.34742 8.89758Z" fill="#ED3237"/>
</svg>
