<svg width="25" height="25" viewBox="0 0 25 25" fill="none" xmlns="http://www.w3.org/2000/svg">
<path d="M23.9412 10.0994C24.1251 9.67556 24.1476 9.19917 24.0047 8.75989C23.8617 8.32061 23.5631 7.94876 23.165 7.71436L21.005 6.43186C20.9793 6.41808 20.9569 6.39886 20.9395 6.37554C20.922 6.35222 20.9098 6.32537 20.9037 6.29686L20.3412 3.83311C20.2391 3.38406 19.9776 2.98727 19.6053 2.71629C19.2329 2.4453 18.7749 2.31849 18.3162 2.35936L15.8075 2.58436C15.7796 2.59096 15.7504 2.59028 15.7229 2.58241C15.6953 2.57453 15.6702 2.5597 15.65 2.53936L13.7487 0.874356C13.4015 0.575048 12.9584 0.4104 12.5 0.4104C12.0416 0.4104 11.5984 0.575048 11.2512 0.874356L9.34999 2.53936C9.32978 2.5597 9.30469 2.57453 9.27712 2.58241C9.24954 2.59028 9.22041 2.59096 9.1925 2.58436L6.68375 2.35936C6.22401 2.31647 5.76445 2.44305 5.39152 2.71529C5.01858 2.98753 4.75798 3.38667 4.65875 3.83761L4.09625 6.30136C4.09021 6.32987 4.07802 6.35673 4.06053 6.38004C4.04305 6.40336 4.02068 6.42258 3.995 6.43636L1.835 7.71436C1.43693 7.94876 1.13829 8.32061 0.99532 8.75989C0.852348 9.19917 0.874906 9.67556 1.05875 10.0994L2.06 12.4169C2.08189 12.471 2.08189 12.5315 2.06 12.5856L1.05875 14.9031C0.875822 15.3253 0.853786 15.7998 0.996796 16.2372C1.13981 16.6745 1.43797 17.0443 1.835 17.2769L4.00624 18.5751C4.05199 18.6073 4.08408 18.6555 4.09625 18.7101L4.65875 21.1739C4.75893 21.624 5.01993 22.022 5.39276 22.2934C5.7656 22.5647 6.22464 22.6907 6.68375 22.6476L9.1925 22.4114C9.2212 22.4095 9.24999 22.4135 9.27708 22.4232C9.30417 22.4328 9.32898 22.448 9.34999 22.4676L11.2512 24.1326C11.5993 24.4302 12.0421 24.5937 12.5 24.5937C12.9579 24.5937 13.4007 24.4302 13.7487 24.1326L15.65 22.4676C15.671 22.448 15.6958 22.4328 15.7229 22.4232C15.75 22.4135 15.7788 22.4095 15.8075 22.4114L18.3162 22.6476C18.7754 22.6907 19.2344 22.5647 19.6072 22.2934C19.9801 22.022 20.2411 21.624 20.3412 21.1739L20.9037 18.7101C20.9098 18.6816 20.922 18.6547 20.9395 18.6314C20.9569 18.6081 20.9793 18.5889 21.005 18.5751L23.165 17.2814C23.562 17.0488 23.8602 16.679 24.0032 16.2417C24.1462 15.8043 24.1242 15.3298 23.9412 14.9076L22.94 12.5901C22.9181 12.536 22.9181 12.4755 22.94 12.4214L23.9412 10.0994ZM17.5512 10.2344L11.9712 15.9494C11.8077 16.1062 11.5904 16.1947 11.3637 16.1969C11.1862 16.1985 11.0127 16.1433 10.8687 16.0394L7.56125 13.6769C7.37924 13.5456 7.25684 13.3474 7.22098 13.1258C7.18511 12.9043 7.23871 12.6776 7.37 12.4956C7.50128 12.3136 7.69948 12.1912 7.92101 12.1553C8.14254 12.1195 8.36924 12.1731 8.55125 12.3044L11.2625 14.2506L16.3475 9.05311C16.4247 8.97345 16.517 8.90992 16.6189 8.86619C16.7209 8.82246 16.8305 8.7994 16.9414 8.79836C17.0523 8.79731 17.1624 8.81829 17.2651 8.86009C17.3679 8.90189 17.4613 8.96367 17.54 9.04186C17.6984 9.19915 17.7884 9.41256 17.7905 9.6358C17.7927 9.85903 17.7067 10.0741 17.5512 10.2344Z" fill="#1CE51C"/>
</svg>
