<svg width="23" height="23" viewBox="0 0 23 23" fill="none" xmlns="http://www.w3.org/2000/svg">
<g clip-path="url(#clip0_7_33)">
<path d="M21.3564 8.94668C20.7328 8.63069 19.9839 8.69656 19.4251 9.11653L17.7329 10.373C17.493 8.01577 15.5095 6.22168 13.1401 6.21869H13.0617L9.25633 2.41427C8.73847 1.89277 8.03324 1.6005 7.29828 1.6028H1.1388C0.628946 1.6028 0.215637 2.01615 0.215637 2.526C0.215637 3.03585 0.628946 3.44916 1.1388 3.44916H7.29823C7.54295 3.44981 7.77749 3.54701 7.95093 3.71967L10.45 6.21869H4.83153C2.28352 6.22177 0.21871 8.28658 0.215637 10.8346V18.22C0.21871 20.768 2.28352 22.8328 4.83153 22.8359H13.1401C15.5095 22.8329 17.493 21.0388 17.7329 18.6816L19.4223 19.9408C20.2381 20.5526 21.3954 20.3873 22.0072 19.5715C22.2469 19.252 22.3765 18.8632 22.3765 18.4637V10.5973C22.3789 9.89762 21.9833 9.25747 21.3564 8.94668ZM15.9097 18.22C15.9097 19.7495 14.6697 20.9895 13.1401 20.9895H4.83153C3.30197 20.9895 2.062 19.7495 2.062 18.22V10.8346C2.062 9.30503 3.30197 8.06506 4.83153 8.06506H13.1401C14.6697 8.06506 15.9097 9.30503 15.9097 10.8346V18.22ZM20.5255 18.4572L17.756 16.393V12.6616L20.5255 10.5974V18.4572Z" fill="#ED3237"/>
</g>
<defs>
<clipPath id="clip0_7_33">
<rect width="22.1562" height="22.1562" fill="white" transform="translate(0.215637 0.679688)"/>
</clipPath>
</defs>
</svg>
